<svg xmlns="http://www.w3.org/2000/svg" version="1.1" xmlns:xlink="http://www.w3.org/1999/xlink" xmlns:svgjs="http://svgjs.com/svgjs" width="1440" height="560" preserveAspectRatio="none" viewBox="0 0 1440 560"><g mask="url(&quot;#SvgjsMask1045&quot;)" fill="none"><rect width="1440" height="560" x="0" y="0" fill="#0e2a47"></rect><path d="M1105.74,112.946C1139.364,114.7,1173.606,102.138,1191.339,73.516C1209.95,43.478,1210,4.686,1191.451,-25.39C1173.722,-54.138,1139.515,-65.164,1105.74,-65.28C1071.721,-65.396,1035.328,-55.828,1019.007,-25.98C1003.138,3.042,1016.808,37.269,1034.325,65.327C1050.565,91.34,1075.116,111.349,1105.74,112.946" fill="rgba(28, 83, 142, 0.4)" class="triangle-float1"></path><path d="M1464.2334545496096 355.2327202920656L1415.2167461915546 258.8049400366892 1362.34034690313 337.1974257772024z" fill="rgba(28, 83, 142, 0.4)" class="triangle-float2"></path><path d="M1004.27 352.97 a132.05 132.05 0 1 0 264.1 0 a132.05 132.05 0 1 0 -264.1 0z" fill="rgba(28, 83, 142, 0.4)" class="triangle-float1"></path><path d="M663.2069967814507 467.29515895941637L687.8654462812186 368.3955198551908 588.9658071769929 343.73707035542293 564.3073576772251 442.6367094596485z" fill="rgba(28, 83, 142, 0.4)" class="triangle-float1"></path><path d="M65.77 18.53 a102.46 102.46 0 1 0 204.92 0 a102.46 102.46 0 1 0 -204.92 0z" fill="rgba(28, 83, 142, 0.4)" class="triangle-float1"></path><path d="M1340.0369622677233 299.9825173959023L1456.4032289259296 240.6909430708911 1397.1116546009184 124.32467641268477 1280.7453879427121 183.61625073769596z" fill="rgba(28, 83, 142, 0.4)" class="triangle-float1"></path><path d="M0.91 87.57 a140.42 140.42 0 1 0 280.84 0 a140.42 140.42 0 1 0 -280.84 0z" fill="rgba(28, 83, 142, 0.4)" class="triangle-float1"></path><path d="M928.9635957588421 436.31311924596616L996.5905566652063 487.2736895331003 1047.5511269523406 419.646728626736 979.9241660459762 368.68615833960183z" fill="rgba(28, 83, 142, 0.4)" class="triangle-float1"></path><path d="M387.954,514.498C422.54,516.1,455.707,497.85,472.856,467.773C489.856,437.958,486.181,401.672,469.333,371.771C452.138,341.255,422.979,316.747,387.954,317.093C353.411,317.434,324.862,342.504,309.312,373.351C295.261,401.225,300.473,433.223,315.666,460.491C331.357,488.653,355.751,513.006,387.954,514.498" fill="rgba(28, 83, 142, 0.4)" class="triangle-float1"></path></g><defs><mask id="SvgjsMask1045"><rect width="1440" height="560" fill="#ffffff"></rect></mask></defs></svg>