<svg xmlns="http://www.w3.org/2000/svg" version="1.1" xmlns:xlink="http://www.w3.org/1999/xlink" xmlns:svgjs="http://svgjs.dev/svgjs" viewBox="0 0 1422 800"><defs><filter id="uuunion-blur" x="-100%" y="-100%" width="400%" height="400%" color-interpolation-filters="sRGB">
        <feGaussianBlur in="SourceGraphic" stdDeviation="7.5 0" result="blur"></feGaussianBlur>
        <feDropShadow stdDeviation="12.307692307692308" in="blur" dx="10" dy="10" flood-color="hsl(265, 55%, 30%)" flood-opacity="0.25" x="0%" y="0%" width="100%" height="100%"></feDropShadow>
      </filter><filter id="uuunion-blur2" x="-100%" y="-100%" width="400%" height="400%" color-interpolation-filters="sRGB">
        <feGaussianBlur in="SourceGraphic" stdDeviation="7.5 0" result="blur"></feGaussianBlur>
        <feDropShadow stdDeviation="12.307692307692308" in="blur" dx="-10" dy="-10" flood-color="hsl(265, 55%, 30%)" flood-opacity="0.25" x="0%" y="0%" width="100%" height="100%"></feDropShadow>
      </filter><linearGradient gradientTransform="rotate(0, 0.5, 0.5)" x1="50%" y1="0%" x2="50%" y2="100%" id="uuunion-grad"><stop stop-color="hsl(265, 55%, 60%)" offset="10%"></stop><stop stop-color="hsl(265, 55%, 30%)" offset="90%"></stop></linearGradient><linearGradient gradientTransform="rotate(135, 0.5, 0.5)" x1="50%" y1="0%" x2="50%" y2="100%" id="uuunion-grad2"><stop stop-color="hsl(265, 55%, 60%)" offset="25%"></stop><stop stop-color="hsl(265, 55%, 30%)" offset="100%"></stop></linearGradient><linearGradient gradientTransform="rotate(333, 0.5, 0.5)" x1="50%" y1="0%" x2="50%" y2="100%" id="uuunion-grad3"><stop stop-color="hsl(265, 55%, 60%)" offset="0%"></stop><stop stop-color="hsl(265, 55%, 30%)" offset="75%"></stop></linearGradient></defs><path d="M-131.84 -88.05Q-118.85 -88.77 -105.85 -88.51 -92.85 -87.32 -79.85 -85.33 -66.85 -82.74 -53.85 -79.86 -40.85 -76.99 -27.85 -74.45 -14.85 -72.52 -1.85 -71.41 11.13 -71.25 24.13 -72.05 37.13 -73.73 50.13 -76.09 63.13 -78.89 76.13 -81.8 89.13 -84.52 102.13 -86.74 115.13 -88.22 128.13 -88.79 141.12 -88.4 154.12 -87.08 167.12 -84.98 180.12 -82.33 193.12 -79.43 206.12 -76.58 219.12 -74.12 232.12 -72.3 245.12 -71.33 258.12 -71.31 271.12 -72.25 284.11 -74.04 297.11 -76.48 310.11 -79.32 323.11 -82.22 336.11 -84.89 349.11 -87.01 362.11 -88.36 375.11 -88.79 388.11 -88.26 401.11 -86.81 414.1 -84.61 427.1 -81.91 440.1 -78.99 453.1 -76.19 466.1 -73.8 479.1 -72.1 492.1 -71.26 505.1 -71.39 518.1 -72.46 531.1 -74.36 544.1 -76.88 557.09 -79.75 570.09 -82.64 583.09 -85.24 596.09 -87.26 609.09 -88.49 622.09 -88.78 635.09 -88.1 648.09 -86.53 661.09 -84.24 674.09 -81.49 687.09 -78.57 700.08 -75.8 713.08 -73.5 726.08 -71.92 739.08 -71.22 752.08 -71.49 765.08 -72.69 778.08 -74.7 791.08 -77.29 804.08 -80.18 817.08 -83.05 830.07 -85.58 843.07 -87.5 856.07 -88.59 869.07 -88.74 882.07 -87.92 895.07 -86.23 908.07 -83.86 921.07 -81.06 934.07 -78.14 947.07 -75.43 960.07 -73.22 973.07 -71.76 986.06 -71.2 999.06 -71.61 1012.06 -72.94 1025.06 -75.05 1038.06 -77.71 1051.06 -80.61 1064.06 -83.45 1077.06 -85.91 1090.06 -87.71 1103.06 -88.67 1116.06 -88.67 1129.05 -87.72 1142.05 -85.92 1155.05 -83.46 1168.05 -80.63 1181.05 -77.72 1194.05 -75.07 1207.05 -72.95 1220.05 -71.61 1233.05 -71.2 1246.05 -71.75 1259.05 -73.21 1272.04 -75.42 1285.04 -78.13 1298.04 -81.04 1311.04 -83.84 1324.04 -86.22 1337.04 -87.91 1350.04 -88.73 1363.04 -88.59 1376.04 -87.51 1389.04 -85.59 1402.04 -83.06 1415.04 -80.2 1428.03 -77.31 1441.03 -74.71 1454.03 -72.7 1467.03 -71.49 1480.03 -71.22 1493.03 -71.91 1506.03 -73.49 1519.03 -75.79 1532.03 -78.55 1535.39 -63.51 1540.33 -48.48 1546.57 -33.44 1553.77 -18.4 1561.55 -3.37 1569.47 11.66 1577.1 26.7 1584.03 41.74 1589.87 56.77 1594.31 71.81 1597.1 86.85 1598.09 101.88 1597.23 116.92 1594.56 131.96 1590.23 146.99 1584.48 162.03 1577.62 177.07 1570.02 192.1 1562.11 207.14 1554.31 222.18 1547.05 237.22 1540.73 252.25 1535.69 267.29 1532.21 282.33 1530.48 297.36 1530.59 312.4 1532.54 327.44 1536.22 342.47 1541.43 357.51 1547.89 372.55 1555.23 387.58 1563.07 402.62 1570.97 417.66 1578.5 432.7 1585.24 447.73 1590.84 462.77 1594.98 477.81 1597.43 492.84 1598.07 507.88 1596.85 522.92 1593.85 537.95 1589.23 552.99 1583.24 568.03 1576.21 583.06 1568.52 598.1 1560.59 613.14 1552.86 628.18 1545.75 643.21 1539.65 658.25 1534.89 673.29 1531.74 688.32 1530.36 703.36 1530.82 718.4 1533.12 733.43 1537.11 748.47 1542.58 763.51 1549.24 778.54 1556.71 793.58 1564.59 808.62 1572.45 823.66 1579.86 838.69 1586.42 853.73 1591.75 868.77 1595.58 883.8 1581.93 891.08 1568.27 897.14 1554.62 901.31 1540.96 903.13 1527.31 902.41 1513.65 899.22 1500 893.92 1486.34 887.08 1472.68 879.47 1459.03 871.91 1445.37 865.24 1431.72 860.19 1418.06 857.33 1404.41 856.96 1390.75 859.12 1377.1 863.58 1363.44 869.85 1349.79 877.24 1336.13 884.92 1322.48 892.07 1308.82 897.89 1295.17 901.73 1281.51 903.19 1267.86 902.09 1254.2 898.56 1240.55 892.99 1226.89 885.99 1213.23 878.33 1199.58 870.85 1185.92 864.38 1172.27 859.62 1158.61 857.11 1144.96 857.12 1131.3 859.64 1117.65 864.41 1103.99 870.89 1090.34 878.37 1076.68 886.03 1063.03 893.03 1049.37 898.59 1035.72 902.1 1022.06 903.19 1008.41 901.72 994.75 897.86 981.1 892.03 967.44 884.88 953.79 877.19 940.13 869.81 926.47 863.55 912.82 859.1 899.16 856.95 885.51 857.34 871.85 860.22 858.2 865.27 844.54 871.95 830.89 879.51 817.23 887.12 803.58 893.95 789.92 899.25 776.27 902.42 762.61 903.13 748.96 901.29 735.3 897.11 721.65 891.04 707.99 883.76 694.34 876.06 680.68 868.8 667.03 862.77 653.37 858.63 639.72 856.85 626.06 857.61 612.4 860.84 598.75 866.17 585.09 873.03 571.44 880.65 557.78 888.2 544.13 894.85 530.47 899.86 516.82 902.69 503.16 903.02 489.51 900.81 475.85 896.32 462.2 890.03 448.54 882.63 434.89 874.95 421.23 867.82 407.58 862.03 393.92 858.21 380.27 856.8 366.61 857.94 352.96 861.5 339.3 867.1 325.65 874.12 311.99 881.79 298.34 889.25 284.68 895.7 271.03 900.42 257.37 902.9 243.71 902.85 230.06 900.29 216.4 895.49 202.75 888.99 189.09 881.5 175.44 873.84 161.78 866.86 148.13 861.33 134.47 857.85 120.82 856.81 107.16 858.32 93.51 862.21 79.85 868.06 66.2 875.23 52.54 882.92 38.89 890.29 25.23 896.52 11.58 900.94 -2.07 903.05 -15.72 902.63 -29.38 899.71 -43.03 894.62 -56.69 887.93 -70.34 880.36 -84 872.75 -97.65 865.94 -111.31 860.67 -124.96 857.54 -138.62 856.87 -152.27 858.75 -151.04 843.95 -149.33 829.16 -147.22 814.37 -144.84 799.57 -142.31 784.78 -139.78 769.98 -137.38 755.19 -135.24 740.4 -133.48 725.6 -132.19 710.81 -131.46 696.01 -131.31 681.22 -131.75 666.43 -132.77 651.63 -134.3 636.84 -136.26 622.04 -138.54 607.25 -141.03 592.46 -143.57 577.66 -146.05 562.87 -148.31 548.07 -150.23 533.28 -151.72 518.49 -152.68 503.69 -153.07 488.9 -152.87 474.1 -152.08 459.31 -150.75 444.52 -148.95 429.72 -146.78 414.93 -144.36 400.14 -141.82 385.34 -139.3 370.55 -136.94 355.75 -134.87 340.96 -133.19 326.17 -132.01 311.37 -131.38 296.58 -131.35 281.78 -131.9 266.99 -133.02 252.2 -134.64 237.4 -136.67 222.61 -139.01 207.81 -141.51 193.02 -144.06 178.23 -146.5 163.43 -148.71 148.64 -150.56 133.84 -151.95 119.05 -152.8 104.26 -153.08 89.46 -152.76 74.67 -151.86 59.87 -150.44 45.08 -148.56 30.29 -146.33 15.49 -143.88 0.7 -141.33 -14.08 -138.84 -28.88 -136.52 -43.67 -134.51 -58.47 -132.93 -73.26 -131.84 -88.05" fill="url(#uuunion-grad)"></path><path d="M-131.85 -88.05Q-132.94 -73.26 -134.52 -58.47 -136.53 -43.67 -138.84 -28.88 -141.34 -14.08 -143.89 0.7 -146.34 15.49 -148.57 30.29 -150.45 45.08 -151.87 59.88 -152.77 74.67 -153.09 89.46 -152.81 104.26 -151.96 119.05 -150.57 133.85 -148.72 148.64 -146.51 163.43 -144.07 178.23 -141.52 193.02 -139.02 207.82 -136.68 222.61 -134.65 237.4 -133.03 252.2 -131.91 266.99 -131.36 281.79 -131.39 296.58 -132.02 311.37 -133.2 326.17 -134.88 340.96 -136.95 355.75 -136.13 377.42 -124.07 384 -115.19 384.5 -106.31 385.77 -97.43 387.73 -88.55 390.3 -79.68 393.34 -70.8 396.71 -61.92 400.24 -53.04 403.76 -44.16 407.1 -35.28 410.08 -26.4 412.57 -17.52 414.44 -0.73 415.89 2.22 415.98 13.64 411.98 25.02 406.83 36.38 400.7 47.71 393.82 59 386.48 70.27 379 81.5 371.72 92.7 364.96 103.87 358.98 115.01 353.99 126.13 350.15 137.21 347.49 148.26 345.97 159.29 345.46 170.29 345.75 181.27 346.59 192.22 347.66 203.15 348.65 214.06 349.24 224.95 349.14 235.82 348.15 246.68 346.08 257.52 342.88 268.35 338.56 279.17 333.21 289.98 327.01 300.78 320.2 311.58 313.06 322.38 305.91 333.18 299.04 343.98 292.75 354.78 287.27 365.59 282.77 376.4 279.36 387.23 277.04 398.07 275.76 408.92 275.35 419.79 275.62 430.68 276.29 441.59 277.08 452.51 277.68 463.46 277.81 474.44 277.23 485.44 275.75 496.47 273.25 507.53 269.69 518.61 265.1 529.73 259.61 540.88 253.41 552.07 246.73 563.28 239.84 574.53 233.04 585.82 226.61 597.14 220.79 608.49 215.78 619.88 211.73 631.3 208.69 642.76 206.66 654.25 205.54 665.77 205.18 677.33 205.35 688.91 205.8 700.53 206.27 712.18 206.47 723.85 206.15 735.56 205.1 747.28 203.18 759.03 200.28 770.8 196.42 782.59 191.64 794.4 186.08 806.23 179.93 818.06 173.43 829.91 166.84 841.76 160.41 853.63 154.41 865.49 149.05 877.36 144.48 889.22 140.83 901.08 138.11 912.93 136.3 924.76 135.28 936.59 134.89 948.4 134.92 960.19 135.12 971.96 135.23 983.7 135.02 995.42 134.25 1007.1 132.77 1018.76 130.44 1030.37 127.21 1041.95 123.11 1053.49 118.2 1064.98 112.63 1076.43 106.6 1087.83 100.32 1099.19 94.05 1110.49 88.02 1121.73 82.44 1132.92 77.51 1144.05 73.36 1155.13 70.05 1166.14 67.6 1177.1 65.94 1187.99 64.95 1198.82 64.48 1209.58 64.31 1220.28 64.22 1230.92 63.96 1241.5 63.33 1252.01 62.15 1262.45 60.25 1272.84 57.57 1283.16 54.07 1293.42 49.78 1303.62 44.81 1313.76 39.3 1323.84 33.43 1333.87 27.42 1343.84 21.49 1353.76 15.85 1363.64 10.7 1373.46 6.17 1383.25 2.38 1392.99 -0.63 1402.69 -2.89 1412.36 -4.46 1422 -5.46 1413.85 -22.82 1406.31 -40.17 1399.93 -57.53 1395.2 -74.89 1392.45 -92.24 1391.9 -109.6 1393.59 -126.96 1397.39 -144.31 1385.34 -146.11 1373.29 -147.34 1361.24 -147.88 1349.19 -147.67 1337.14 -146.74 1325.09 -145.18 1313.05 -143.13 1301 -140.79 1288.95 -138.37 1276.9 -136.11 1264.85 -134.2 1252.8 -132.85 1240.75 -132.16 1228.7 -132.22 1216.66 -133 1204.61 -134.44 1192.56 -136.4 1180.51 -138.7 1168.46 -141.13 1156.41 -143.44 1144.36 -145.43 1132.31 -146.91 1120.26 -147.74 1108.22 -147.85 1096.17 -147.21 1084.12 -145.9 1072.07 -144.03 1060.02 -141.78 1047.97 -139.36 1035.92 -137.01 1023.87 -134.93 1011.83 -133.33 999.78 -132.36 987.73 -132.1 975.68 -132.59 963.63 -133.77 951.58 -135.54 939.53 -137.73 927.48 -140.13 915.43 -142.51 903.39 -144.66 891.34 -146.38 879.29 -147.49 867.24 -147.89 855.19 -147.56 843.14 -146.51 831.09 -144.85 819.04 -142.74 806.99 -140.36 794.95 -137.96 782.9 -135.74 770.85 -133.92 758.8 -132.68 746.75 -132.12 734.7 -132.3 722.65 -133.21 710.6 -134.75 698.56 -136.79 686.51 -139.13 674.46 -141.55 662.41 -143.82 650.36 -145.73 638.31 -147.11 626.26 -147.82 614.21 -147.79 602.16 -147.03 590.12 -145.6 578.07 -143.65 566.02 -141.36 553.97 -138.94 541.92 -136.62 529.87 -134.61 517.82 -133.11 505.77 -132.26 493.73 -132.14 481.68 -132.75 469.63 -134.04 457.58 -135.9 445.53 -138.14 433.48 -140.55 421.43 -142.91 409.38 -145 397.33 -146.62 385.29 -147.61 373.24 -147.89 361.19 -147.43 349.14 -146.26 337.09 -144.51 325.04 -142.33 312.99 -139.94 300.94 -137.55 288.89 -135.39 276.85 -133.66 264.8 -132.53 252.75 -132.1 240.7 -132.41 228.65 -133.43 216.6 -135.08 204.55 -137.18 192.5 -139.55 180.46 -141.96 168.41 -144.19 156.36 -146.02 144.31 -147.28 132.26 -147.86 120.21 -147.71 108.16 -146.82 96.11 -145.3 84.06 -143.27 72.02 -140.94 59.97 -138.52 47.92 -136.24 35.87 -134.31 23.82 -132.91 11.77 -132.19 -0.27 -132.19 -12.32 -132.93 -24.36 -134.33 -36.41 -136.27 -48.46 -138.56 -60.51 -140.98 -72.56 -143.3 -84.61 -145.32 -96.66 -146.84 -108.71 -147.71 -120.76 -147.86 -136.76 -139.4 -137.16 -117.07 -134.21 -102.57 -131.85 -88.05" fill="url(#uuunion-grad2)" filter="url(#uuunion-blur)"></path><path d="M1393.07 311.91Q1401.73 314.84 1410.4 318.02 1419.06 321.3 1427.73 324.52 1436.39 327.51 1445.05 330.14 1462.38 333.45 1479.71 334.76 1488.37 334.16 1497.04 332.86 1505.7 330.93 1514.36 328.46 1523.03 325.58 1531.69 322.42 1535.49 339.97 1541.43 357.51 1549.06 375.05 1557.81 392.6 1567.04 410.14 1576.05 427.68 1584.19 445.23 1590.84 462.77 1595.51 480.31 1597.85 497.86 1597.69 515.4 1595.04 532.94 1590.11 550.48 1583.24 568.03 1574.96 585.57 1565.88 603.11 1556.68 620.66 1548.03 638.2 1540.59 655.74 1534.89 673.29 1531.38 690.83 1530.31 708.37 1531.75 725.92 1535.6 743.46 1541.58 761 1549.24 778.54 1558.01 796.09 1567.24 813.63 1576.24 831.17 1584.35 848.72 1590.96 866.26 1595.58 883.8 1583.06 890.51 1570.53 896.25 1558.01 900.48 1545.48 902.81 1532.96 903.02 1520.43 901.1 1507.91 897.22 1495.38 891.74 1482.85 885.18 1470.33 878.13 1457.8 871.26 1445.28 865.2 1432.75 860.5 1420.23 857.62 1407.7 856.81 1395.18 858.15 1382.65 861.52 1370.13 866.6 1357.6 872.92 1345.08 879.9 1332.55 886.88 1320.02 893.23 1307.5 898.35 1294.97 901.77 1282.45 903.17 1269.92 902.42 1257.4 899.59 1244.87 894.94 1232.35 888.91 1219.82 882.05 1207.3 875 1194.77 868.41 1182.25 862.9 1169.72 858.97 1157.2 856.99 1144.67 857.15 1132.14 859.42 1119.62 863.6 1107.09 869.3 1094.57 875.99 1082.04 883.06 1069.52 889.84 1056.99 895.7 1044.47 900.11 1031.94 902.66 1019.42 903.1 1006.89 901.4 994.37 897.72 981.84 892.39 969.31 885.91 956.79 878.89 944.26 871.96 931.74 865.79 919.21 860.92 906.69 857.83 894.16 856.8 881.64 857.91 869.11 861.07 856.59 865.99 844.06 872.2 831.54 879.14 819.01 886.16 806.49 892.61 793.96 897.88 781.43 901.5 768.91 903.12 756.38 902.6 743.86 899.98 731.33 895.51 718.81 889.6 706.28 882.8 693.76 875.74 681.23 869.07 668.71 863.42 656.18 859.3 643.66 857.1 631.13 857.03 618.6 859.08 606.08 863.08 593.55 868.64 581.03 875.25 568.5 882.31 555.98 889.15 543.45 895.14 530.93 899.73 518.4 902.48 505.88 903.16 493.35 901.68 480.83 898.19 468.3 893.02 455.78 886.64 443.25 879.64 430.72 872.68 418.2 866.39 405.67 861.36 393.15 858.07 380.62 856.8 368.1 857.69 355.57 860.65 343.05 865.39 330.52 871.5 318 878.39 305.47 885.43 292.95 891.96 280.42 897.39 267.89 901.2 255.37 903.05 242.84 902.76 230.32 900.36 217.79 896.07 205.27 890.29 192.74 883.55 180.22 876.49 167.69 869.75 155.17 863.96 142.64 859.66 130.12 857.24 117.59 856.93 105.07 858.77 92.54 862.57 80.01 867.99 67.49 874.52 54.96 881.55 42.44 888.45 29.91 894.56 17.39 899.32 -1.14 897.66 -6.5 882.89 -5.71 872.74 -4.81 862.59 -3.81 852.44 -2.75 842.29 -0.83 827.07 0.47 822 13.61 814.59 26.68 805.18 39.67 794.1 52.58 781.81 65.4 768.92 78.15 756.07 90.81 743.9 103.4 732.97 115.91 723.72 128.35 716.44 140.73 711.19 153.04 707.87 165.31 706.17 177.54 705.65 189.74 705.73 201.91 705.81 214.06 705.27 226.21 703.56 238.37 700.27 250.54 695.11 262.73 688 274.95 679.04 287.21 668.51 299.52 656.84 311.88 644.56 324.3 632.26 336.78 620.52 349.32 609.87 361.93 600.72 374.61 593.33 387.35 587.81 400.16 584.05 413.03 581.81 425.96 580.68 438.95 580.16 451.98 579.68 465.05 578.7 478.14 576.7 491.27 573.29 504.4 568.2 517.53 561.35 530.66 552.81 543.76 542.82 556.83 531.74 569.86 520.07 582.83 508.33 595.74 497.04 608.57 486.7 621.32 477.68 633.98 470.24 646.54 464.48 658.98 460.32 671.32 457.56 683.54 455.84 695.64 454.71 707.62 453.67 719.48 452.22 731.23 449.9 742.86 446.34 754.38 441.29 765.8 434.66 777.12 426.5 788.37 417.01 799.54 406.52 808.97 401.56 818.4 396.45 827.81 391.4 837.22 386.65 846.62 382.4 856.01 378.81 865.38 376.04 874.76 374.16 884.12 373.22 893.47 373.18 902.82 373.98 912.15 375.49 921.48 377.56 930.8 379.98 940.12 382.54 949.42 385.02 958.72 387.19 968.02 388.86 977.3 389.85 986.58 390.04 995.86 389.34 1005.12 387.73 1014.39 385.23 1023.64 381.9 1032.89 377.89 1042.14 373.34 1051.38 368.46 1060.62 363.46 1069.86 358.55 1079.09 353.96 1088.31 349.88 1097.54 346.48 1106.76 343.87 1115.98 342.13 1125.2 341.3 1134.41 341.35 1143.62 342.19 1152.84 343.71 1162.05 345.73 1171.26 348.07 1180.47 350.52 1189.68 352.85 1198.89 354.86 1208.11 356.35 1217.32 357.17 1226.53 357.2 1235.75 356.36 1244.97 354.64 1254.19 352.05 1263.42 348.69 1272.65 344.68 1281.88 340.18 1291.11 335.38 1300.35 330.5 1309.6 325.74 1318.85 321.31 1328.1 317.41 1337.36 314.17 1346.63 311.72 1355.9 310.12 1365.18 309.4 1374.47 309.52 1383.77 310.4 1393.07 311.91" fill="url(#uuunion-grad3)" filter="url(#uuunion-blur2)"></path></svg>