<svg xmlns="http://www.w3.org/2000/svg" version="1.1" xmlns:xlink="http://www.w3.org/1999/xlink" xmlns:svgjs="http://svgjs.com/svgjs" width="1440" height="560" preserveAspectRatio="none" viewBox="0 0 1440 560"><g mask="url(&quot;#SvgjsMask1010&quot;)" fill="none"><rect width="1440" height="560" x="0" y="0" fill="rgba(72, 181, 217, 1)"></rect><path d="M 0,150 C 96,131.2 288,67.2 480,56 C 672,44.8 768,89 960,94 C 1152,99 1344,83.6 1440,81L1440 560L0 560z" fill="rgba(51, 119, 174, 1)"></path><path d="M 0,247 C 57.6,271 172.8,363.2 288,367 C 403.2,370.8 460.8,279.8 576,266 C 691.2,252.2 748.8,301.8 864,298 C 979.2,294.2 1036.8,234.4 1152,247 C 1267.2,259.6 1382.4,338.2 1440,361L1440 560L0 560z" fill="rgba(50, 126, 183, 1)"></path><path d="M 0,476 C 96,457.4 288,379.8 480,383 C 672,386.2 768,479.2 960,492 C 1152,504.8 1344,456 1440,447L1440 560L0 560z" fill="rgba(0, 99, 161, 1)"></path></g><defs><mask id="SvgjsMask1010"><rect width="1440" height="560" fill="#ffffff"></rect></mask></defs></svg>